<svg width="18" height="18" viewBox="0 0 18 18" fill="none" xmlns="http://www.w3.org/2000/svg">
<circle cx="9" cy="9" r="9" fill="#0074EB"/>
<path d="M8.23298 10.5455V10.4944C8.23866 9.95174 8.29548 9.51992 8.40343 9.1989C8.51139 8.87787 8.6648 8.61793 8.86366 8.41907C9.06252 8.2202 9.30116 8.03697 9.57957 7.86935C9.74718 7.76708 9.89775 7.64634 10.0313 7.50714C10.1648 7.36509 10.2699 7.20174 10.3466 7.01708C10.4262 6.83242 10.4659 6.62787 10.4659 6.40344C10.4659 6.12503 10.4006 5.88356 10.2699 5.67901C10.1392 5.47446 10.3354 5.79562 9.74576 5.206C9.52701 5.0952 9.28411 5.03981 9.01707 5.03981C8.78411 5.03981 8.55968 5.0881 8.34377 5.18469C8.12786 5.28128 7.94747 5.43327 7.80258 5.64066C7.65769 5.84804 7.57389 6.11935 7.55116 6.45458H6.47729C6.50002 5.97162 6.62502 5.55827 6.85229 5.21452C7.08241 4.87077 7.38497 4.60799 7.75997 4.42617C8.13781 4.24435 8.55684 4.15344 9.01707 4.15344C9.51707 4.15344 9.95173 4.25287 10.321 4.45174C10.6932 4.6506 10.9801 4.92333 11.1818 5.26992C11.3864 5.61651 11.4887 6.0114 11.4887 6.45458C11.4887 6.76708 11.4404 7.04975 11.3438 7.30259C11.25 7.55543 11.1137 7.78128 10.9347 7.98015C10.7585 8.17901 10.5455 8.35515 10.2955 8.50856C10.0455 8.66481 9.84519 8.82958 9.69462 9.00287C9.54406 9.17333 9.43468 9.37645 9.3665 9.61225C9.29832 9.84804 9.26139 10.1421 9.2557 10.4944V10.5455H8.23298ZM8.77843 13.0682C8.5682 13.0682 8.38781 12.9929 8.23724 12.8424C8.08667 12.6918 8.01139 12.5114 8.01139 12.3012C8.01139 12.0909 8.08667 11.9105 8.23724 11.76C8.38781 11.6094 8.5682 11.5341 8.77843 11.5341C8.98866 11.5341 9.16906 11.6094 9.31962 11.76C9.47019 11.9105 9.54548 12.0909 9.54548 12.3012C9.54548 12.4404 9.50997 12.5682 9.43894 12.6847C9.37076 12.8012 9.27843 12.8949 9.16195 12.9659C9.04832 13.0341 8.92048 13.0682 8.77843 13.0682Z" fill="white"/>
</svg>
