<svg width="19" height="17" viewBox="0 0 19 17" fill="none" xmlns="http://www.w3.org/2000/svg">
<path d="M0.589268 3.47802L1.96964 8.62963L7.12162 7.24916L6.84555 6.21884L3.23184 7.18713C3.5946 4.49885 5.52665 2.16009 8.3107 1.4141C12.0095 0.423024 15.8112 2.61801 16.8023 6.31669C17.7933 10.0154 15.5984 13.8172 11.8997 14.8083C8.73124 15.6572 5.48718 14.168 3.99907 11.3988L2.94427 11.6814C4.60414 15.0193 8.43564 16.8407 12.1757 15.8386C16.4434 14.6951 18.9762 10.3085 17.8326 6.04061C16.689 1.77278 12.3023 -0.759748 8.03462 0.38378C5.17712 1.14944 3.09745 3.36924 2.37835 6.03365L1.61959 3.20194L0.589268 3.47802Z" fill="#0074EB"/>
</svg>
