<svg width="18" height="18" viewBox="0 0 18 18" fill="none" xmlns="http://www.w3.org/2000/svg">
<path fill-rule="evenodd" clip-rule="evenodd" d="M9 18C4.03275 18 -3.52554e-07 13.9673 -7.86805e-07 9C-1.22106e-06 4.03275 4.03275 1.22106e-06 9 7.86805e-07C13.9672 3.52554e-07 18 4.03275 18 9C18 13.9672 13.9672 18 9 18ZM9 17.25C4.44675 17.25 0.75 13.5533 0.749999 9C0.749999 4.44675 4.44675 0.750001 9 0.750001C13.5532 0.75 17.25 4.44675 17.25 9C17.25 13.5533 13.5533 17.25 9 17.25ZM8.625 4.125L9.375 4.125L9.375 11.625L8.625 11.625L8.625 4.125ZM9 13.875C8.6505 13.875 8.36625 13.5915 8.36625 13.2413C8.36625 12.8918 8.6505 12.6083 9 12.6083C9.3495 12.6083 9.63375 12.8918 9.63375 13.2413C9.63375 13.5915 9.3495 13.875 9 13.875Z" fill="#E21818"/>
</svg>
